# xmcd CD database file
#
# Track frame offsets:
#	150
#	30380
#	54650
#	85290
#	111535
#	131241
#	157634
#	182490
#
# Disc length: 2896 seconds
#
# Revision: 0
# Processed by: cddbd v1.5.1PL0 Copyright (c) Steve Scherf et al.
# Submitted via: CDex 1.51
#
DISCID=610b4e08
DTITLE=The Sapphire Tonics - Orange Light and a Booth
DYEAR=2002
DGENRE=Jazz
TTITLE0=Orange Light and a Booth
TTITLE1=Caravan
TTITLE2=Closet
TTITLE3=Cookie Monster
TTITLE4=Adult Life
TTITLE5=Tune-Up
TTITLE6=Klof
TTITLE7=Ode to Skuddlebuttin'
EXTD=YEAR: 2002
EXTT0=
EXTT1=
EXTT2=
EXTT3=
EXTT4=
EXTT5=
EXTT6=
EXTT7=
PLAYORDER=
